<?xml version="1.0" encoding="UTF-8" standalone="no"?>
<!DOCTYPE svg PUBLIC "-//W3C//DTD SVG 1.1//EN" "http://www.w3.org/Graphics/SVG/1.1/DTD/svg11.dtd">
<svg width="100%" height="100%" viewBox="0 0 1080 1080" version="1.1" xmlns="http://www.w3.org/2000/svg" xmlns:xlink="http://www.w3.org/1999/xlink" xml:space="preserve" xmlns:serif="http://www.serif.com/" style="fill-rule:evenodd;clip-rule:evenodd;stroke-linecap:round;stroke-linejoin:round;stroke-miterlimit:1.5;">
    <g transform="matrix(1.01759,0,0,2.05131,-9.5,-1121.56)">
        <rect x="0" y="540" width="1080" height="540" style="stroke:white;stroke-width:2.48px;"/>
    </g>
    <g transform="matrix(1.17843,0,0,1.17843,-96.3515,-96.3515)">
        <g transform="matrix(1.03586,0,0,1.03586,17.4076,-153.51)">
            <circle cx="504.5" cy="669.5" r="362.5" style="stroke:rgb(51,198,244);stroke-width:5.65px;"/>
        </g>
        <g transform="matrix(1,0,0,1,35.5,-129.5)">
            <circle cx="504.5" cy="669.5" r="362.5" style="stroke:rgb(51,198,244);stroke-width:3.08px;"/>
        </g>
        <g transform="matrix(0.236906,0.763412,-0.763412,0.236906,931.585,-1.74959)">
            <g transform="matrix(-0.662083,-0.74943,0.74943,-0.662083,-276.199,1745.33)">
                <text x="255.383px" y="934.933px" style="font-family:'AXIS-ExtraBold', 'AXIS';font-weight:800;font-size:92.062px;fill:white;">R</text>
            </g>
            <g transform="matrix(-0.481529,-0.87643,0.87643,-0.481529,-464.711,1466.74)">
                <text x="201.484px" y="870.823px" style="font-family:'AXIS-ExtraBold', 'AXIS';font-weight:800;font-size:92.062px;fill:white;">E</text>
            </g>
            <g transform="matrix(-0.275684,-0.961248,0.961248,-0.275684,-559.491,1180.59)">
                <text x="165.052px" y="801.09px" style="font-family:'AXIS-ExtraBold', 'AXIS';font-weight:800;font-size:92.062px;fill:white;">P</text>
            </g>
            <g transform="matrix(-0.0696584,-0.997571,0.997571,-0.0696584,-576.053,929.873)">
                <text x="145.577px" y="733.552px" style="font-family:'AXIS-ExtraBold', 'AXIS';font-weight:800;font-size:92.062px;fill:white;">A</text>
            </g>
            <g transform="matrix(0.125082,-0.992146,0.992146,0.125082,-508.052,700.303)">
                <text x="143.041px" y="638.214px" style="font-family:'AXIS-ExtraBold', 'AXIS';font-weight:800;font-size:92.062px;fill:white;">I</text>
            </g>
            <g transform="matrix(0.306839,-0.951761,0.951761,0.306839,-459.084,551.265)">
                <text x="148.922px" y="590.811px" style="font-family:'AXIS-ExtraBold', 'AXIS';font-weight:800;font-size:92.062px;fill:white;">R</text>
            </g>
            <g transform="matrix(0.605567,-0.795795,0.795795,0.605567,-301.849,343.862)">
                <text x="195.957px" y="476.431px" style="font-family:'AXIS-ExtraBold', 'AXIS';font-weight:800;font-size:92.062px;fill:white;">P</text>
            </g>
            <g transform="matrix(0.770264,-0.637725,0.637725,0.770264,-205.909,252.313)">
                <text x="247.244px" y="411.949px" style="font-family:'AXIS-ExtraBold', 'AXIS';font-weight:800;font-size:92.062px;fill:white;">R</text>
            </g>
            <g transform="matrix(0.894395,-0.447277,0.447277,0.894395,-128.534,177.289)">
                <text x="311.178px" y="360.841px" style="font-family:'AXIS-ExtraBold', 'AXIS';font-weight:800;font-size:92.062px;fill:white;">O</text>
            </g>
            <g transform="matrix(0.973794,-0.227432,0.227432,0.973794,-63.287,97.6397)">
                <text x="392.046px" y="323.442px" style="font-family:'AXIS-ExtraBold', 'AXIS';font-weight:800;font-size:92.062px;fill:white;">S</text>
            </g>
        </g>
        <g transform="matrix(-0.799326,-1.25645e-16,1.25645e-16,-0.799326,983.205,1115.15)">
            <g transform="matrix(-0.0524747,-0.998622,0.998622,-0.0524747,308.331,1713.74)">
                <text x="967.192px" y="710.594px" style="font-family:'AXIS-ExtraBold', 'AXIS';font-weight:800;font-size:36.489px;fill:white;">P</text>
            </g>
            <g transform="matrix(-0.133876,-0.990998,0.990998,-0.133876,422.597,1725.33)">
                <text x="965.26px" y="677.992px" style="font-family:'AXIS-ExtraBold', 'AXIS';font-weight:800;font-size:36.489px;fill:white;">H</text>
            </g>
            <g transform="matrix(-0.21886,-0.975756,0.975756,-0.21886,543.244,1720.16)">
                <text x="960.158px" y="642.634px" style="font-family:'AXIS-ExtraBold', 'AXIS';font-weight:800;font-size:36.489px;fill:white;">O</text>
            </g>
            <g transform="matrix(-0.303707,-0.952766,0.952766,-0.303707,661.778,1700.21)">
                <text x="952.157px" y="608.287px" style="font-family:'AXIS-ExtraBold', 'AXIS';font-weight:800;font-size:36.489px;fill:white;">N</text>
            </g>
            <g transform="matrix(-0.382368,-0.92401,0.92401,-0.382368,770.431,1661.8)">
                <text x="940.611px" y="573.414px" style="font-family:'AXIS-ExtraBold', 'AXIS';font-weight:800;font-size:36.489px;fill:white;">E</text>
            </g>
            <g transform="matrix(-0.47171,-0.881754,0.881754,-0.47171,888.121,1593.04)">
                <text x="921.286px" y="530.47px" style="font-family:'AXIS-ExtraBold', 'AXIS';font-weight:800;font-size:36.489px;fill:white;">|</text>
            </g>
            <g transform="matrix(-0.559165,-0.829056,0.829056,-0.559165,995.056,1529.43)">
                <text x="904.151px" y="500.165px" style="font-family:'AXIS-ExtraBold', 'AXIS';font-weight:800;font-size:36.489px;fill:white;">T</text>
            </g>
            <g transform="matrix(-0.618857,-0.785504,0.785504,-0.618857,1063.57,1469.17)">
                <text x="888.222px" y="476.553px" style="font-family:'AXIS-ExtraBold', 'AXIS';font-weight:800;font-size:36.489px;fill:white;">A</text>
            </g>
            <g transform="matrix(-0.684791,-0.728739,0.728739,-0.684791,1130.69,1383.18)">
                <text x="864.482px" y="447.054px" style="font-family:'AXIS-ExtraBold', 'AXIS';font-weight:800;font-size:36.489px;fill:white;">B</text>
            </g>
            <g transform="matrix(-0.73848,-0.674275,0.674275,-0.73848,1177.83,1303.08)">
                <text x="841.619px" y="423.129px" style="font-family:'AXIS-ExtraBold', 'AXIS';font-weight:800;font-size:36.489px;fill:white;">L</text>
            </g>
            <g transform="matrix(-0.786081,-0.618123,0.618123,-0.786081,1213.7,1225.38)">
                <text x="818.889px" y="402.674px" style="font-family:'AXIS-ExtraBold', 'AXIS';font-weight:800;font-size:36.489px;fill:white;">E</text>
            </g>
            <g transform="matrix(-0.831461,-0.555582,0.555582,-0.831461,1241.53,1143.79)">
                <text x="794.25px" y="383.582px" style="font-family:'AXIS-ExtraBold', 'AXIS';font-weight:800;font-size:36.489px;fill:white;">T</text>
            </g>
            <g transform="matrix(-0.883801,-0.467862,0.467862,-0.883801,1249.87,1025.2)">
                <text x="752.242px" y="357.39px" style="font-family:'AXIS-ExtraBold', 'AXIS';font-weight:800;font-size:36.489px;fill:white;">|</text>
            </g>
            <g transform="matrix(-0.927991,-0.372603,0.372603,-0.927991,1262.95,927.674)">
                <text x="721.118px" y="341.798px" style="font-family:'AXIS-ExtraBold', 'AXIS';font-weight:800;font-size:36.489px;fill:white;">C</text>
            </g>
            <g transform="matrix(-0.95589,-0.293725,0.293725,-0.95589,1251.07,846.319)">
                <text x="689.083px" y="329.22px" style="font-family:'AXIS-ExtraBold', 'AXIS';font-weight:800;font-size:36.489px;fill:white;">O</text>
            </g>
            <g transform="matrix(-0.977993,-0.208638,0.208638,-0.977993,1229.56,767.968)">
                <text x="655.281px" y="319.137px" style="font-family:'AXIS-ExtraBold', 'AXIS';font-weight:800;font-size:36.489px;fill:white;">N</text>
            </g>
            <g transform="matrix(-0.991948,-0.126646,0.126646,-0.991948,1194.02,699.663)">
                <text x="619.251px" y="311.874px" style="font-family:'AXIS-ExtraBold', 'AXIS';font-weight:800;font-size:36.489px;fill:white;">S</text>
            </g>
            <g transform="matrix(-0.998921,-0.0464438,0.0464438,-0.998921,1160.95,643.174)">
                <text x="587.947px" y="308.1px" style="font-family:'AXIS-ExtraBold', 'AXIS';font-weight:800;font-size:36.489px;fill:white;">O</text>
            </g>
            <g transform="matrix(-0.999433,0.0336804,-0.0336804,-0.999433,1115.41,594.859)">
                <text x="552.695px" y="306.824px" style="font-family:'AXIS-ExtraBold', 'AXIS';font-weight:800;font-size:36.489px;fill:white;">L</text>
            </g>
            <g transform="matrix(-0.994253,0.107056,-0.107056,-0.994253,1074.3,558.473)">
                <text x="522.161px" y="308.072px" style="font-family:'AXIS-ExtraBold', 'AXIS';font-weight:800;font-size:36.489px;fill:white;">E</text>
            </g>
            <g transform="matrix(-0.983366,0.181636,-0.181636,-0.983366,1030.81,528.923)">
                <text x="491.188px" y="311.662px" style="font-family:'AXIS-ExtraBold', 'AXIS';font-weight:800;font-size:36.489px;fill:white;">S</text>
            </g>
            <g transform="matrix(-0.960224,0.279229,-0.279229,-0.960224,961.83,506.444)">
                <text x="444.844px" y="321.727px" style="font-family:'AXIS-ExtraBold', 'AXIS';font-weight:800;font-size:36.489px;fill:white;">|</text>
            </g>
            <g transform="matrix(-0.925469,0.378823,-0.378823,-0.925469,918.358,483.76)">
                <text x="411.591px" y="332.22px" style="font-family:'AXIS-ExtraBold', 'AXIS';font-weight:800;font-size:36.489px;fill:white;">C</text>
            </g>
            <g transform="matrix(-0.890713,0.454567,-0.454567,-0.890713,875.277,480.54)">
                <text x="379.873px" y="345.488px" style="font-family:'AXIS-ExtraBold', 'AXIS';font-weight:800;font-size:36.489px;fill:white;">O</text>
            </g>
            <g transform="matrix(-0.843369,0.537335,-0.537335,-0.843369,836.807,479.385)">
                <text x="348.534px" y="361.655px" style="font-family:'AXIS-ExtraBold', 'AXIS';font-weight:800;font-size:36.489px;fill:white;">M</text>
            </g>
            <g transform="matrix(-0.789989,0.613121,-0.613121,-0.789989,795.203,498.574)">
                <text x="312.214px" y="385.476px" style="font-family:'AXIS-ExtraBold', 'AXIS';font-weight:800;font-size:36.489px;fill:white;">P</text>
            </g>
            <g transform="matrix(-0.738731,0.674,-0.674,-0.738731,771.761,512.127)">
                <text x="286.62px" y="405.646px" style="font-family:'AXIS-ExtraBold', 'AXIS';font-weight:800;font-size:36.489px;fill:white;">U</text>
            </g>
            <g transform="matrix(-0.681324,0.731982,-0.731982,-0.681324,753.677,529.855)">
                <text x="261.5px" y="428.988px" style="font-family:'AXIS-ExtraBold', 'AXIS';font-weight:800;font-size:36.489px;fill:white;">T</text>
            </g>
            <g transform="matrix(-0.621639,0.783304,-0.783304,-0.621639,742.801,548.746)">
                <text x="238.869px" y="453.771px" style="font-family:'AXIS-ExtraBold', 'AXIS';font-weight:800;font-size:36.489px;fill:white;">E</text>
            </g>
            <g transform="matrix(-0.559165,0.829056,-0.829056,-0.559165,739.111,563.094)">
                <text x="219.848px" y="478.051px" style="font-family:'AXIS-ExtraBold', 'AXIS';font-weight:800;font-size:36.489px;fill:white;">R</text>
            </g>
            <g transform="matrix(-0.496042,0.868299,-0.868299,-0.496042,740.659,579.744)">
                <text x="202.089px" y="504.81px" style="font-family:'AXIS-ExtraBold', 'AXIS';font-weight:800;font-size:36.489px;fill:white;">S</text>
            </g>
            <g transform="matrix(-0.406802,0.913517,-0.913517,-0.406802,752.455,604.917)">
                <text x="179.824px" y="546.764px" style="font-family:'AXIS-ExtraBold', 'AXIS';font-weight:800;font-size:36.489px;fill:white;">|</text>
            </g>
            <g transform="matrix(-0.299461,0.954109,-0.954109,-0.299461,768.258,593.479)">
                <text x="166.253px" y="578.781px" style="font-family:'AXIS-ExtraBold', 'AXIS';font-weight:800;font-size:36.489px;fill:white;">M</text>
            </g>
            <g transform="matrix(-0.208351,0.978054,-0.978054,-0.208351,792.068,598.159)">
                <text x="153.956px" y="619.634px" style="font-family:'AXIS-ExtraBold', 'AXIS';font-weight:800;font-size:36.489px;fill:white;">O</text>
            </g>
            <g transform="matrix(-0.125669,0.992072,-0.992072,-0.125669,814.117,590.187)">
                <text x="146.988px" y="653.842px" style="font-family:'AXIS-ExtraBold', 'AXIS';font-weight:800;font-size:36.489px;fill:white;">R</text>
            </g>
            <g transform="matrix(-0.0491136,0.998793,-0.998793,-0.0491136,836.029,577.514)">
                <text x="143.107px" y="686.721px" style="font-family:'AXIS-ExtraBold', 'AXIS';font-weight:800;font-size:36.489px;fill:white;">E</text>
            </g>
        </g>
        <g transform="matrix(0.754483,0,0,0.754483,159.363,34.8738)">
            <circle cx="504.5" cy="669.5" r="362.5"/>
            <clipPath id="_clip1">
                <circle cx="504.5" cy="669.5" r="362.5"/>
            </clipPath>
            <g clip-path="url(#_clip1)">
                <g transform="matrix(2.10739,0,0,2.10739,-633.564,-259.076)">
                    <g transform="matrix(0.940092,2.77556e-17,-2.77556e-17,0.940092,34.2304,-32.9862)">
                        <path d="M662,409.661C662,388.875 645.125,372 624.339,372L451.661,372C430.875,372 414,388.875 414,409.661L414,809.339C414,830.125 430.875,847 451.661,847L624.339,847C645.125,847 662,830.125 662,809.339L662,409.661Z" style="fill:white;stroke:black;stroke-width:2.06px;"/>
                    </g>
                    <g transform="matrix(0.843318,0,-2.77556e-17,0.885664,86.2948,0.187699)">
                        <path d="M662,409.661C662,388.875 645.125,372 624.339,372L598.999,372C596.603,372 594.661,373.849 594.661,376.13C594.661,377.916 594.661,380.098 594.661,382.298C594.661,385.187 593.456,387.958 591.31,390.001C589.164,392.044 586.254,393.192 583.22,393.192C561.736,393.192 515.593,393.192 494.109,393.192C491.075,393.192 488.165,392.044 486.019,390.001C483.873,387.958 482.668,385.187 482.668,382.298C482.668,380.098 482.668,377.916 482.668,376.13C482.668,375.035 482.211,373.984 481.398,373.21C480.584,372.435 479.481,372 478.33,372L451.661,372C430.875,372 414,388.875 414,409.661L414,809.339C414,830.125 430.875,847 451.661,847L624.339,847C645.125,847 662,830.125 662,809.339L662,409.661Z" style="fill:white;stroke:black;stroke-width:2.24px;"/>
                    </g>
                    <g transform="matrix(1,0,0,1,4.5,0)">
                        <path d="M554,333.327C554,331.3 552.354,329.655 550.327,329.655L506.673,329.655C504.646,329.655 503,331.3 503,333.327C503,335.354 504.646,337 506.673,337L550.327,337C552.354,337 554,335.354 554,333.327Z" style="fill:white;stroke:black;stroke-width:1.94px;"/>
                    </g>
                    <g transform="matrix(1,0,0,1,-2.5,1)">
                        <circle cx="571.327" cy="332.327" r="3.673" style="fill:white;stroke:black;stroke-width:1.94px;"/>
                    </g>
                </g>
            </g>
            <circle cx="504.5" cy="669.5" r="362.5" style="fill:none;stroke:rgb(51,198,244);stroke-width:6.45px;"/>
        </g>
        <g transform="matrix(1,0,0,1,-1,10)">
            <circle cx="230.189" cy="459" r="20" style="fill:rgb(51,198,244);stroke:black;stroke-width:4.87px;"/>
        </g>
        <g transform="matrix(1,0,0,1,618.511,10)">
            <circle cx="230.189" cy="459" r="20" style="fill:rgb(51,198,244);stroke:black;stroke-width:4.87px;"/>
        </g>
        <g transform="matrix(0.411765,0,0,0.411765,203.042,278.147)">
            <path d="M55,455L46.5,455C41.809,455 38,458.809 38,463.5C38,468.191 41.809,472 46.5,472L55,472L55,480.5C55,485.191 58.809,489 63.5,489C68.191,489 72,485.191 72,480.5L72,472L80.5,472C85.191,472 89,468.191 89,463.5C89,458.809 85.191,455 80.5,455L72,455L72,446.5C72,441.809 68.191,438 63.5,438C58.809,438 55,441.809 55,446.5L55,455Z" style="fill:rgb(51,198,244);stroke:black;stroke-width:5.74px;"/>
        </g>
        <g transform="matrix(0.411765,0,0,0.411765,822.554,278.147)">
            <path d="M55,455L46.5,455C41.809,455 38,458.809 38,463.5C38,468.191 41.809,472 46.5,472L55,472L55,480.5C55,485.191 58.809,489 63.5,489C68.191,489 72,485.191 72,480.5L72,472L80.5,472C85.191,472 89,468.191 89,463.5C89,458.809 85.191,455 80.5,455L72,455L72,446.5C72,441.809 68.191,438 63.5,438C58.809,438 55,441.809 55,446.5L55,455Z" style="fill:rgb(51,198,244);stroke:black;stroke-width:5.74px;"/>
        </g>
        <g transform="matrix(6.5,0,0,6.5,-2970.06,-2568.75)">
            <path d="M520,490L542.601,490L544.429,486.886L546.325,490.438L548.041,471.498L549.722,498.271L551.16,488.686L551.904,489.916L553.592,481.447L555.108,490.403L556.281,489.458L557.426,490.202L560,490.202" style="fill:none;stroke:black;stroke-width:0.83px;"/>
        </g>
    </g>
</svg>
